<?xml version="1.0" encoding="UTF-8"?>
<svg xmlns="http://www.w3.org/2000/svg" xmlns:xlink="http://www.w3.org/1999/xlink" width="240pt" height="240pt" viewBox="0 0 240 240" version="1.1">
<g id="surface6924703">
<path style=" stroke:none;fill-rule:nonzero;fill:rgb(100%,100%,100%);fill-opacity:1;" d="M 120 30 C 89.335938 30 62.1875 45.3125 45.9375 68.75 C 43.242188 64.609375 40.78125 57.5 39.6875 50.3125 C 32.578125 57.304688 29.453125 70.117188 30.625 87.1875 C 30.078125 87.929688 20.3125 100.585938 20.3125 112.5 C 20.273438 112.5 20.429688 115.195312 20.625 115.9375 L 26.5625 111.25 C 24.453125 116.523438 23.28125 127.8125 23.4375 133.75 C 23.75 146.25 24.6875 163.242188 37.8125 182.1875 C 57.5 207.65625 82.695312 217.890625 112.5 219.6875 C 142.304688 221.445312 168.710938 212.109375 189.6875 188.4375 C 203.90625 171.015625 211.992188 157.34375 215.9375 138.4375 C 218.710938 125.234375 219.882812 110.585938 218.75 100.3125 C 217.851562 104.726562 215.703125 109.140625 213.4375 112.1875 C 213.164062 100.859375 212.5 88.59375 209.375 79.6875 C 207.1875 73.710938 203.828125 65.195312 199.6875 59.6875 C 201.601562 67.265625 200.898438 74.140625 200.9375 78.4375 C 197.304688 65.664062 188.046875 54.179688 174.375 48.4375 C 159.257812 36.914062 140.46875 30 120 30 Z M 120 40 C 127.8125 40 135.351562 41.328125 142.5 43.4375 C 141.601562 44.140625 140.78125 45.039062 140 45 C 153.046875 48.671875 161.992188 51.914062 163.125 54.6875 C 158.320312 53.828125 153.828125 54.140625 150 55.625 C 177.382812 66.40625 191.484375 84.53125 190 99.375 C 188.007812 96.25 183.046875 91.210938 180 89.6875 C 184.179688 105.976562 185.585938 117.8125 182.1875 128.4375 C 179.84375 121.328125 176.289062 111.484375 174.375 110 C 177.03125 131.835938 174.804688 153.515625 165 164.0625 C 165.9375 160.351562 166.054688 154.140625 165.625 150 C 154.101562 167.304688 143.476562 175.078125 128.75 175.625 C 120.273438 175.585938 109.960938 172.5 110 172.5 C 102.421875 169.960938 95.585938 165.664062 90.625 159.375 C 100.820312 162.226562 111.25 163.828125 117.5 160.625 L 131.875 151.875 C 133.515625 151.25 134.765625 151.171875 136.25 151.875 C 139.335938 151.445312 140.390625 149.921875 139.375 147.1875 C 137.890625 145.117188 135.703125 143.203125 132.8125 141.5625 C 126.523438 138.28125 119.960938 138.789062 113.125 143.125 C 106.601562 146.796875 96.796875 143.125 90 140.3125 C 87.5 139.257812 80.9375 134.0625 80.3125 130 C 79.609375 125.46875 81.171875 122.070312 84.6875 123.125 C 83.671875 123.046875 95 125.039062 100.3125 126.5625 C 100.3125 120.585938 96.914062 114.609375 95.3125 110 C 100.273438 105.390625 106.835938 102.460938 110.625 100.3125 C 115.195312 98.046875 114.804688 93.515625 113.125 92.5 C 107.03125 93.085938 102.5 91.875 102.5 91.875 C 101.054688 91.445312 97.226562 89.648438 95 87.5 L 90.625 83.4375 C 90.625 83.4375 88.945312 82.070312 89.0625 81.25 C 90.703125 70.507812 98.789062 63.554688 104.0625 60 C 94.296875 61.210938 85.351562 65.585938 77.5 73.125 C 72.226562 71.210938 63.90625 69.257812 56.875 70.9375 C 71.523438 52.070312 94.335938 40 120 40 Z M 120 40 "/>
</g>
</svg>
